<svg width="64" height="64" viewBox="0 0 64 64" fill="none" xmlns="http://www.w3.org/2000/svg">
<path d="M50 26.71C47.9273 26.5423 45.9187 25.9111 44.1227 24.8629C42.3267 23.8147 40.7891 22.3763 39.6237 20.6541C38.4582 18.9318 37.6947 16.9697 37.3894 14.9128C37.0841 12.8558 37.245 10.7565 37.86 8.77C37.8913 8.65693 37.8889 8.53714 37.8528 8.42547C37.8168 8.3138 37.7488 8.21515 37.6573 8.14172C37.5658 8.06828 37.4547 8.0233 37.3379 8.01233C37.2211 8.00136 37.1036 8.02489 37 8.08C35.1399 9.13455 33.5486 10.6046 32.3503 12.3754C31.1519 14.1463 30.3789 16.17 30.0915 18.2888C29.8041 20.4077 30.0101 22.5642 30.6934 24.5903C31.3767 26.6164 32.5189 28.4572 34.0309 29.9691C35.5428 31.4811 37.3836 32.6233 39.4097 33.3066C41.4358 33.9899 43.5924 34.196 45.7112 33.9085C47.83 33.6211 49.8537 32.8481 51.6246 31.6497C53.3954 30.4514 54.8654 28.8601 55.92 27C55.9851 26.8959 56.0166 26.7743 56.0105 26.6517C56.0043 26.5291 55.9606 26.4114 55.8854 26.3144C55.8102 26.2173 55.707 26.1457 55.5898 26.1092C55.4726 26.0726 55.347 26.0729 55.23 26.11C53.5407 26.6411 51.7656 26.8447 50 26.71Z" fill="#EFCC00"/>
<path d="M23.66 21.9C26.8425 21.899 29.965 22.7664 32.6911 24.4087C35.4171 26.051 37.6434 28.406 39.13 31.22C40.956 30.1524 43.0037 29.5205 45.1138 29.3735C47.2239 29.2264 49.3394 29.5681 51.2959 30.372C53.2523 31.176 54.997 32.4205 56.394 34.0086C57.791 35.5968 58.8028 37.4859 59.3507 39.5289C59.8985 41.572 59.9676 43.7138 59.5526 45.7879C59.1376 47.862 58.2497 49.8124 56.9579 51.4873C55.6662 53.1622 54.0054 54.5166 52.1049 55.445C50.2043 56.3734 48.1152 56.8507 46 56.84L23.61 56.9C18.9687 56.9 14.5175 55.0563 11.2356 51.7744C7.95374 48.4925 6.11 44.0413 6.11 39.4C6.11 34.7587 7.95374 30.3075 11.2356 27.0256C14.5175 23.7437 18.9687 21.9 23.61 21.9H23.66Z" fill="url(#paint0_linear_31_30)"/>
<path d="M59.295 46.7935C61.3384 39.4797 57.0659 31.8941 49.7521 29.8507C42.4383 27.8073 34.8527 32.0798 32.8093 39.3936C30.7659 46.7074 35.0384 54.2929 42.3522 56.3364C49.666 58.3798 57.2516 54.1073 59.295 46.7935Z" fill="url(#paint1_linear_31_30)"/>
<defs>
<linearGradient id="paint0_linear_31_30" x1="19.25" y1="58.39" x2="40.34" y2="31.08" gradientUnits="userSpaceOnUse">
<stop stop-color="#F2F2F2"/>
<stop offset="1" stop-color="#CFCFCF"/>
</linearGradient>
<linearGradient id="paint1_linear_31_30" x1="51.6747" y1="38.2062" x2="35.7365" y2="52.0688" gradientUnits="userSpaceOnUse">
<stop offset="0.02" stop-color="white"/>
<stop offset="1" stop-color="white" stop-opacity="0"/>
</linearGradient>
</defs>
</svg>
