<svg width="64" height="64" viewBox="0 0 64 64" fill="none" xmlns="http://www.w3.org/2000/svg">
<path d="M41.3 18.9C38.1175 18.899 34.995 19.7664 32.2689 21.4087C29.5429 23.051 27.3166 25.406 25.83 28.22C24.0058 27.1534 21.9603 26.5217 19.8524 26.3737C17.7445 26.2258 15.6308 26.5657 13.6756 27.3671C11.7203 28.1684 9.97602 29.4096 8.57819 30.9943C7.18036 32.579 6.16658 34.4646 5.61557 36.5046C5.06456 38.5446 4.99115 40.6842 5.40104 42.7571C5.81092 44.8301 6.69307 46.7807 7.979 48.4575C9.26492 50.1343 10.92 51.4922 12.8158 52.4256C14.7115 53.3591 16.7969 53.8431 18.91 53.84L41.3 53.9C45.9413 53.9 50.3925 52.0562 53.6744 48.7744C56.9563 45.4925 58.8 41.0413 58.8 36.4C58.8 31.7587 56.9563 27.3075 53.6744 24.0256C50.3925 20.7437 45.9413 18.9 41.3 18.9Z" fill="url(#paint0_linear_31_122)"/>
<path d="M22.6198 53.333C29.9337 51.2896 34.2062 43.704 32.1627 36.3902C30.1193 29.0764 22.5337 24.8039 15.2199 26.8473C7.9061 28.8907 3.63361 36.4763 5.67704 43.7901C7.72047 51.1039 15.306 55.3764 22.6198 53.333Z" fill="url(#paint1_linear_31_122)"/>
<defs>
<linearGradient id="paint0_linear_31_122" x1="45.72" y1="55.39" x2="24.63" y2="28.08" gradientUnits="userSpaceOnUse">
<stop stop-color="#F2F2F2"/>
<stop offset="1" stop-color="#CFCFCF"/>
</linearGradient>
<linearGradient id="paint1_linear_31_122" x1="13.2947" y1="35.1932" x2="29.2259" y2="49.0681" gradientUnits="userSpaceOnUse">
<stop offset="0.02" stop-color="white"/>
<stop offset="1" stop-color="white" stop-opacity="0"/>
</linearGradient>
</defs>
</svg>
