<svg width="64" height="64" viewBox="0 0 64 64" fill="none" xmlns="http://www.w3.org/2000/svg">
<path d="M50 20.71C47.9273 20.5423 45.9187 19.9111 44.1227 18.8629C42.3267 17.8147 40.7891 16.3763 39.6237 14.6541C38.4582 12.9318 37.6947 10.9697 37.3894 8.91276C37.0841 6.85577 37.245 4.75648 37.86 2.77C37.8913 2.65693 37.8889 2.53714 37.8528 2.42547C37.8168 2.3138 37.7488 2.21515 37.6573 2.14172C37.5658 2.06828 37.4547 2.0233 37.3379 2.01233C37.2211 2.00136 37.1036 2.02489 37 2.08C35.1399 3.13455 33.5486 4.60459 32.3503 6.37543C31.1519 8.14627 30.3789 10.17 30.0915 12.2888C29.8041 14.4077 30.0101 16.5642 30.6934 18.5903C31.3767 20.6164 32.5189 22.4572 34.0309 23.9691C35.5428 25.4811 37.3836 26.6233 39.4097 27.3066C41.4358 27.99 43.5924 28.1959 45.7112 27.9085C47.83 27.6211 49.8537 26.8481 51.6246 25.6497C53.3954 24.4514 54.8654 22.8601 55.92 21C55.9851 20.8959 56.0166 20.7743 56.0105 20.6517C56.0043 20.5291 55.9606 20.4114 55.8854 20.3144C55.8102 20.2173 55.707 20.1457 55.5898 20.1092C55.4726 20.0726 55.347 20.0729 55.23 20.11C53.5407 20.6411 51.7656 20.8447 50 20.71Z" fill="#EFCC00"/>
<path d="M23.66 15.9C26.8425 15.899 29.965 16.7664 32.6911 18.4087C35.4171 20.051 37.6434 22.406 39.13 25.22C40.956 24.1524 43.0037 23.5205 45.1138 23.3735C47.2239 23.2264 49.3394 23.5681 51.2959 24.372C53.2523 25.176 54.997 26.4204 56.394 28.0086C57.791 29.5968 58.8028 31.4859 59.3507 33.5289C59.8985 35.5719 59.9676 37.7138 59.5526 39.7879C59.1376 41.862 58.2497 43.8124 56.9579 45.4873C55.6662 47.1622 54.0054 48.5166 52.1049 49.445C50.2043 50.3734 48.1152 50.8507 46 50.84L23.61 50.9C18.9687 50.9 14.5175 49.0562 11.2356 45.7744C7.95374 42.4925 6.11 38.0413 6.11 33.4C6.11 28.7587 7.95374 24.3075 11.2356 21.0256C14.5175 17.7437 18.9687 15.9 23.61 15.9H23.66Z" fill="url(#paint0_linear_31_142)"/>
<path d="M59.2963 40.789C61.3397 33.4752 57.0672 25.8896 49.7534 23.8462C42.4396 21.8027 34.854 26.0752 32.8106 33.3891C30.7672 40.7029 35.0397 48.2884 42.3535 50.3319C49.6673 52.3753 57.2529 48.1028 59.2963 40.789Z" fill="url(#paint1_linear_31_142)"/>
<path d="M37.84 54.5H48.06" stroke="#A5A9AA" stroke-width="3" stroke-miterlimit="10" stroke-linecap="round"/>
<path d="M15.94 54.5H32.74" stroke="#B9C1C6" stroke-width="3" stroke-miterlimit="10" stroke-linecap="round"/>
<path d="M33.23 59.5H44.55" stroke="#A5A9AA" stroke-width="3" stroke-miterlimit="10" stroke-linecap="round"/>
<path d="M19.96 59.5H27.65" stroke="#A5A9AA" stroke-width="3" stroke-miterlimit="10" stroke-linecap="round"/>
<defs>
<linearGradient id="paint0_linear_31_142" x1="19.25" y1="52.39" x2="40.34" y2="25.08" gradientUnits="userSpaceOnUse">
<stop stop-color="#F2F2F2"/>
<stop offset="1" stop-color="#CFCFCF"/>
</linearGradient>
<linearGradient id="paint1_linear_31_142" x1="51.676" y1="32.2017" x2="35.7352" y2="46.0739" gradientUnits="userSpaceOnUse">
<stop offset="0.02" stop-color="white"/>
<stop offset="1" stop-color="white" stop-opacity="0"/>
</linearGradient>
</defs>
</svg>
