<svg width="64" height="64" viewBox="0 0 64 64" fill="none" xmlns="http://www.w3.org/2000/svg">
<path d="M44.54 41.47C41.1097 41.1833 37.7876 40.1303 34.8185 38.3887C31.8494 36.647 29.309 34.2612 27.3848 31.407C25.4606 28.5528 24.2016 25.3031 23.7006 21.8976C23.1995 18.492 23.4693 15.0174 24.49 11.73C24.5503 11.5347 24.5492 11.3256 24.487 11.1309C24.4248 10.9362 24.3044 10.7652 24.1421 10.641C23.9798 10.5168 23.7833 10.4453 23.5791 10.4362C23.3749 10.4271 23.1728 10.4808 23 10.59C19.9412 12.3518 17.329 14.7941 15.3657 17.7276C13.4023 20.6611 12.1405 24.0071 11.678 27.5066C11.2155 31.006 11.5647 34.565 12.6985 37.9078C13.8322 41.2507 15.7203 44.2877 18.2163 46.7837C20.7123 49.2797 23.7493 51.1678 27.0922 52.3016C30.435 53.4353 33.994 53.7845 37.4934 53.322C40.9929 52.8595 44.3389 51.5977 47.2724 49.6343C50.2059 47.671 52.6482 45.0588 54.41 42C54.5123 41.8274 54.5603 41.6281 54.5479 41.4278C54.5354 41.2276 54.463 41.0358 54.34 40.8772C54.2171 40.7187 54.0493 40.6008 53.8585 40.5389C53.6676 40.477 53.4626 40.4739 53.27 40.53C50.4471 41.3996 47.4834 41.7187 44.54 41.47Z" fill="#EFCC00"/>
</svg>
